PathFileType	4	(X/Y/Z)	./resultDataOpenSim/trcMotMarkerGrf/sub10/qtm-14-04.trc
DataRate	CameraRate	NumFrames	NumMarkers	Units	OrigDataRate	OrigDataStartFrame	OrigNumFrames
250.000000	250.000000	9	24	m	250.000000	429	490
Frame#	Time	L.Toe.Tip			R.Toe.Tip			L.Ankle.Lat			R.Ankle.Lat			L.Ankle.Med			R.Ankle.Med			L.Heel			R.Heel			L.Knee.Lat			R.Knee.Lat			L.Knee.Med			R.Knee.Med			L.Thigh.Upper			R.Thigh.Upper			L.ASIS			R.ASIS			V.Sacral			L.Acromium			R.Acromium			C7			L.Elbow			R.Elbow			L.Wrist.Lat			R.Wrist.Lat
		X1	Y1	Z1	X2	Y2	Z2	X3	Y3	Z3	X4	Y4	Z4	X5	Y5	Z5	X6	Y6	Z6	X7	Y7	Z7	X8	Y8	Z8	X9	Y9	Z9	X10	Y10	Z10	X11	Y11	Z11	X12	Y12	Z12	X13	Y13	Z13	X14	Y14	Z14	X15	Y15	Z15	X16	Y16	Z16	X17	Y17	Z17	X18	Y18	Z18	X19	Y19	Z19	X20	Y20	Z20	X21	Y21	Z21	X22	Y22	Z22	X23	Y23	Z23	X24	Y24	Z24

429	1.712	1.6365014	0.054051989	-0.18214223	0.93485438	0.037802408	-0.033155051	1.5116532	0.095871964	-0.24239641	0.81308291	0.10955822	0.0030979198	1.5116925	0.11927538	-0.1599127	0.84487074	0.12581374	-0.07879116	1.4465839	0.07009498	-0.20463441	0.75893774	0.10768209	-0.044596715	1.4052674	0.46801009	-0.25011856	1.0187705	0.45410277	0.041713703	1.4133741	0.44352773	-0.13067793	1.052521	0.44611244	-0.082007513	1.2628412	0.83025849	-0.28893663	1.1314315	0.84990736	0.080019668	1.2932787	0.93587104	-0.20126662	1.2301811	0.9364644	0.03776301	1.0718232	0.94039709	-0.14646865	1.2068629	1.4112596	-0.24884711	1.1767721	1.4004514	0.065767118	1.1181719	1.4344808	-0.10341697	1.0411841	1.1145638	-0.35117487	1.1149845	1.0562022	0.17686204	1.1849317	0.93774549	-0.45608554	1.3519641	0.99126335	0.23923652
430	1.716	1.637757	0.051321099	-0.18122353	0.93520494	0.037780506	-0.03312493	1.5129333	0.093749301	-0.24166478	0.8147056	0.11127962	0.0035750169	1.5124235	0.11730631	-0.15902028	0.84656409	0.1271583	-0.078302899	1.4475505	0.068722012	-0.20405639	0.76051301	0.11017498	-0.044047833	1.4111309	0.46727223	-0.24980333	1.023709	0.45382364	0.041568656	1.4186988	0.44300274	-0.13035242	1.0573171	0.44562647	-0.082472122	1.2687567	0.82976981	-0.2893085	1.1374113	0.84929953	0.079370011	1.2993808	0.93541897	-0.20179146	1.2363063	0.93585564	0.037292615	1.0784363	0.94021357	-0.14606916	1.2120205	1.4105889	-0.24994152	1.1821892	1.4000385	0.064675165	1.1233832	1.4337441	-0.10445663	1.0463744	1.1136866	-0.35133666	1.1205297	1.0556758	0.17545694	1.1889802	0.93578559	-0.45583289	1.3577746	0.99034282	0.23661814
431	1.72	1.6392421	0.049463075	-0.18044123	0.93556245	0.037752943	-0.033093072	1.5137277	0.091451009	-0.24083243	0.81644495	0.11301808	0.004031996	1.5130185	0.11530332	-0.15815948	0.84837813	0.1285344	-0.077796537	1.4482155	0.066818083	-0.20360957	0.76221122	0.11272603	-0.043521856	1.4169194	0.4664978	-0.24955977	1.0288981	0.45347116	0.041402449	1.4242606	0.44246371	-0.13004607	1.0622585	0.44511614	-0.082990423	1.2747829	0.82927196	-0.28971707	1.1434611	0.84869597	0.078746359	1.3055088	0.93500377	-0.20236004	1.2425337	0.9352593	0.03677687	1.0850206	0.93995734	-0.14571949	1.2171907	1.4099281	-0.25106056	1.1876152	1.3996377	0.063558925	1.1286158	1.4330027	-0.10550724	1.0516225	1.1128233	-0.35151243	1.1261311	1.0552439	0.1738314	1.1931081	0.93384738	-0.45559447	1.3635122	0.98941378	0.23405424
432	1.724	1.6408433	0.048298225	-0.17998796	0.93594754	0.037725302	-0.03305262	1.5140296	0.089051565	-0.23991085	0.81828906	0.11477967	0.0044770206	1.5140125	0.11324224	-0.15744892	0.85031834	0.12994235	-0.077271109	1.448629	0.064279406	-0.20323723	0.76404326	0.11533748	-0.043018128	1.4226402	0.4656953	-0.24938173	1.0342069	0.45309549	0.041216726	1.4300331	0.44192567	-0.12977134	1.0673606	0.4445684	-0.083422158	1.2809521	0.82876545	-0.29017265	1.1495954	0.84808546	0.078139323	1.3116545	0.93461685	-0.2029639	1.2488488	0.93466827	0.036209111	1.0915195	0.93963692	-0.14551271	1.2223702	1.4092895	-0.25220687	1.1930588	1.3992463	0.062422427	1.1338704	1.4322642	-0.10657657	1.0569289	1.1119614	-0.35169766	1.1318739	1.0549365	0.17187798	1.1973083	0.93193533	-0.45537214	1.3691726	0.98848158	0.23155254
433	1.728	1.6422525	0.047411787	-0.17989221	0.93638656	0.03770686	-0.032988887	1.513886	0.086682268	-0.2389298	0.82020451	0.11659733	0.0049231599	1.5151333	0.11110562	-0.15678278	0.85238997	0.13138171	-0.076729298	1.4487786	0.06127748	-0.20272757	0.76602139	0.11802402	-0.042530651	1.428311	0.46487321	-0.24923494	1.0395542	0.45273016	0.041011841	1.4358597	0.44138978	-0.12953287	1.072627	0.44398141	-0.083697637	1.2872293	0.8282425	-0.29066062	1.1558019	0.84745884	0.07755055	1.3178086	0.93424989	-0.20359364	1.2552414	0.9340777	0.035588854	1.0979338	0.93926726	-0.14539059	1.227569	1.4086769	-0.25338025	1.1985289	1.3988703	0.061270716	1.1391543	1.4315378	-0.10766853	1.0622878	1.1110933	-0.35188644	1.1377178	1.0547171	0.16968951	1.2015723	0.93005049	-0.45516914	1.3747494	0.98754923	0.2291254
434	1.732	1.6432624	0.046508655	-0.18002206	0.93689207	0.037702582	-0.032886598	1.5133791	0.084443306	-0.23792114	0.82217174	0.11849904	0.0053745431	1.5158079	0.10895052	-0.15598714	0.85459692	0.13285172	-0.076180643	1.4486129	0.058204797	-0.20189832	0.76815553	0.12079988	-0.042060413	1.4339437	0.46403904	-0.24907101	1.0449694	0.45236622	0.040784606	1.4416704	0.44084699	-0.12931256	1.0780571	0.44335722	-0.083861144	1.2935117	0.82768848	-0.29114136	1.1621058	0.8468105	0.076977935	1.3239635	0.93389656	-0.20424176	1.2617089	0.93348612	0.034923988	1.1042783	0.93883971	-0.14533592	1.2327977	1.4080771	-0.25458204	1.2040286	1.3985174	0.060109313	1.144473	1.4308264	-0.10878498	1.0677006	1.1102151	-0.35207128	1.1434975	1.054488	0.1675404	1.2058962	0.92818783	-0.45499288	1.3802284	0.98661772	0.22678881
435	1.736	1.6439023	0.045569528	-0.18019752	0.93744012	0.037702325	-0.032750715	1.5126212	0.082359633	-0.23690597	0.82420771	0.12049215	0.0058322758	1.5159077	0.10690315	-0.15503467	0.85694693	0.13435119	-0.07563341	1.448146	0.055440601	-0.20076785	0.77044805	0.12367656	-0.041614316	1.4395363	0.46320324	-0.24884993	1.0505277	0.45197842	0.040533385	1.447471	0.44029116	-0.12908558	1.0836583	0.44269378	-0.083988367	1.2997162	0.82709092	-0.29158001	1.1685382	0.84613433	0.076417438	1.3301077	0.93355275	-0.20489832	1.2682531	0.93289289	0.034219212	1.1105678	0.93836858	-0.1453773	1.2380608	1.4074763	-0.25581049	1.2095511	1.3981904	0.058938456	1.1498246	1.430124	-0.1099339	1.0731733	1.1093237	-0.35224995	1.1490898	1.0541873	0.1656089	1.2102773	0.92634044	-0.45484794	1.3855968	0.98568771	0.22455458
436	1.74	1.6442955	0.044715723	-0.18024869	0.93798038	0.037683829	-0.03261785	1.5117591	0.080429068	-0.23590137	0.82635766	0.12257636	0.006308115	1.5156403	0.10506187	-0.15400382	0.85946074	0.13587621	-0.075083362	1.4475064	0.053117329	-0.19952906	0.77289175	0.12666876	-0.041194125	1.4450796	0.46238111	-0.24855509	1.0562956	0.45155258	0.040264395	1.4532669	0.43972676	-0.12883688	1.0894475	0.44198522	-0.084121944	1.3058544	0.82644663	-0.2919728	1.1750752	0.84542519	0.075878903	1.3362324	0.93321956	-0.20556141	1.2748756	0.93229322	0.033470958	1.1168098	0.93791475	-0.14551304	1.243356	1.4068729	-0.25705946	1.2150879	1.3978884	0.057752882	1.1552037	1.4294232	-0.11112347	1.0787086	1.1084141	-0.35243125	1.1545141	1.0538342	0.16384134	1.214721	0.92450744	-0.45473113	1.3908691	0.9847552	0.22241533
437	1.744	1.6445294	0.044019879	-0.18006115	0.93847803	0.037631158	-0.032537794	1.5109561	0.078676239	-0.23492587	0.82867034	0.1247463	0.0068122531	1.5152312	0.10343499	-0.15296421	0.86216398	0.13742264	-0.074523448	1.4468754	0.051109419	-0.19839914	0.77548252	0.12978342	-0.040800866	1.4505669	0.46158753	-0.24819242	1.0623156	0.4510908	0.03999064	1.4590309	0.43916767	-0.12856034	1.0954439	0.44122474	-0.084267006	1.3120073	0.82576314	-0.2923441	1.18166	0.84468187	0.075380598	1.3423404	0.93290737	-0.20625136	1.281577	0.93167769	0.032675084	1.1230086	0.93754328	-0.14569404	1.2486759	1.4062712	-0.25832561	1.2206413	1.3976108	0.056551731	1.16061	1.4287256	-0.11235242	1.0843043	1.1074826	-0.35262875	1.1598635	1.0534752	0.16209897	1.2192441	0.92269557	-0.45463491	1.39609	0.98381102	0.22034592
